<svg width="33" height="32" viewBox="0 0 33 32" fill="none" xmlns="http://www.w3.org/2000/svg">
<g clip-path="url(#clip0_170_72436)">
<path d="M7.16667 21.3333H5.83333C5.09695 21.3333 4.5 21.9302 4.5 22.6666V26.6666C4.5 27.403 5.09695 27.9999 5.83333 27.9999H7.16667C7.90305 27.9999 8.5 27.403 8.5 26.6666V22.6666C8.5 21.9302 7.90305 21.3333 7.16667 21.3333Z" stroke="#4C4C4C" stroke-width="2" stroke-linecap="round" stroke-linejoin="round"/>
<path d="M8.5 26.6667C8.5 27.0203 8.64048 27.3595 8.89052 27.6095C9.14057 27.8596 9.47971 28.0001 9.83333 28.0001H14.8413C15.1282 28.0001 15.4074 27.9076 15.6375 27.7363C15.8676 27.5651 16.0363 27.3242 16.1187 27.0494L17.7187 23.0494C17.8387 22.6454 17.896 22.2094 17.644 21.8707C17.3933 21.5321 16.9213 21.3334 16.5 21.3334H13.8333V18.0441C13.8332 17.7294 13.7318 17.4231 13.5442 17.1705C13.3567 16.9178 13.0928 16.7322 12.7916 16.641C12.4905 16.5499 12.1679 16.558 11.8717 16.6642C11.5755 16.7703 11.3213 16.969 11.1467 17.2307L8.5 21.3334V26.6667Z" stroke="#4C4C4C" stroke-width="2" stroke-linecap="round" stroke-linejoin="round"/>
<path d="M19.1666 4V9.33333C19.1666 9.68696 19.3071 10.0261 19.5572 10.2761C19.8072 10.5262 20.1463 10.6667 20.5 10.6667H25.8333" stroke="#4C4C4C" stroke-width="2" stroke-linecap="round" stroke-linejoin="round"/>
<path d="M7.16663 16.1333V6.66667C7.16663 5.95942 7.44758 5.28115 7.94767 4.78105C8.44777 4.28095 9.12605 4 9.83329 4H19.1666L25.8333 10.6667V25.3333C25.8333 26.0406 25.5523 26.7189 25.0522 27.219C24.5521 27.719 23.8739 28 23.1666 28H20.1" stroke="#4C4C4C" stroke-width="2" stroke-linecap="round" stroke-linejoin="round"/>
</g>
<defs>
<clipPath id="clip0_170_72436">
<rect width="32" height="32" fill="white" transform="translate(0.5)"/>
</clipPath>
</defs>
</svg>
