<svg width="33" height="32" viewBox="0 0 33 32" fill="none" xmlns="http://www.w3.org/2000/svg">
<g clip-path="url(#clip0_286_70809)">
<path d="M11.5 24.9999H15.5C16.0304 24.9999 16.5391 24.7892 16.9142 24.4141C17.2893 24.0391 17.5 23.5304 17.5 22.9999V16.3333M17.5 16.3333L14.8333 18.9999M17.5 16.3333L20.1667 18.9999" stroke="#4C4C4C" stroke-width="1.66667" stroke-linecap="round" stroke-linejoin="round"/>
<path d="M21.6358 21.6666H25.8334C26.5406 21.6666 27.2189 21.3856 27.719 20.8855C28.2191 20.3854 28.5 19.7072 28.5 18.9999V9.66659C28.5 8.95934 28.2191 8.28106 27.719 7.78097C27.2189 7.28087 26.5406 6.99992 25.8334 6.99992H19.1667L16.5 4.33325H12.5C11.7928 4.33325 11.1145 4.6142 10.6144 5.1143C10.1143 5.6144 9.83337 6.29267 9.83337 6.99992V18.9999C9.83337 19.7072 10.1143 20.3854 10.6144 20.8855C11.1145 21.3856 11.7928 21.6666 12.5 21.6666H13" stroke="#4C4C4C" stroke-width="2" stroke-linecap="round" stroke-linejoin="round"/>
<path d="M23.1667 22.6667V25.3334C23.1667 26.0407 22.8857 26.7189 22.3856 27.219C21.8855 27.7191 21.2072 28.0001 20.5 28.0001H7.16667C6.45942 28.0001 5.78115 27.7191 5.28105 27.219C4.78095 26.7189 4.5 26.0407 4.5 25.3334V13.3334C4.5 12.6262 4.78095 11.9479 5.28105 11.4478C5.78115 10.9477 6.45942 10.6667 7.16667 10.6667H9.83333" stroke="#4C4C4C" stroke-width="2" stroke-linecap="round" stroke-linejoin="round"/>
</g>
<defs>
<clipPath id="clip0_286_70809">
<rect width="32" height="32" fill="white" transform="translate(0.5)"/>
</clipPath>
</defs>
</svg>
