<svg width="32" height="32" viewBox="0 0 32 32" fill="none" xmlns="http://www.w3.org/2000/svg">
<g clip-path="url(#clip0_301_69427)">
<path d="M11.9997 5.33337H15.9997L18.6663 8.00004H25.333C26.0403 8.00004 26.7185 8.28099 27.2186 8.78109C27.7187 9.28119 27.9997 9.95946 27.9997 10.6667V20C27.9997 20.7073 27.7187 21.3856 27.2186 21.8857C26.7185 22.3858 26.0403 22.6667 25.333 22.6667H11.9997C11.2924 22.6667 10.6142 22.3858 10.1141 21.8857C9.61396 21.3856 9.33301 20.7073 9.33301 20V8.00004C9.33301 7.2928 9.61396 6.61452 10.1141 6.11442C10.6142 5.61433 11.2924 5.33337 11.9997 5.33337Z" stroke="#4C4C4C" stroke-width="2" stroke-linecap="round" stroke-linejoin="round"/>
<path d="M22.6667 22.6666V25.3333C22.6667 26.0405 22.3857 26.7188 21.8856 27.2189C21.3855 27.719 20.7072 28 20 28H6.66667C5.95942 28 5.28115 27.719 4.78105 27.2189C4.28095 26.7188 4 26.0405 4 25.3333V13.3333C4 12.626 4.28095 11.9478 4.78105 11.4477C5.28115 10.9476 5.95942 10.6666 6.66667 10.6666H9.33333" stroke="#4C4C4C" stroke-width="2" stroke-linecap="round" stroke-linejoin="round"/>
</g>
<defs>
<clipPath id="clip0_301_69427">
<rect width="32" height="32" fill="white"/>
</clipPath>
</defs>
</svg>
