<svg width="32" height="32" viewBox="0 0 32 32" fill="none" xmlns="http://www.w3.org/2000/svg">
<g clip-path="url(#clip0_301_69410)">
<path d="M6.66667 5.33337H12L16 9.33337H25.3333C26.0406 9.33337 26.7189 9.61433 27.219 10.1144C27.719 10.6145 28 11.2928 28 12V22.6667C28 23.374 27.719 24.0522 27.219 24.5523C26.7189 25.0524 26.0406 25.3334 25.3333 25.3334H6.66667C5.95942 25.3334 5.28115 25.0524 4.78105 24.5523C4.28095 24.0522 4 23.374 4 22.6667V8.00004C4 7.2928 4.28095 6.61452 4.78105 6.11442C5.28115 5.61433 5.95942 5.33337 6.66667 5.33337Z" stroke="#4C4C4C" stroke-width="2" stroke-linecap="round" stroke-linejoin="round"/>
</g>
<defs>
<clipPath id="clip0_301_69410">
<rect width="32" height="32" fill="white"/>
</clipPath>
</defs>
</svg>
