<svg width="33" height="32" viewBox="0 0 33 32" fill="none" xmlns="http://www.w3.org/2000/svg">
<g clip-path="url(#clip0_170_72452)">
<path d="M11.1666 17.3333V6C11.1666 5.46957 11.3773 4.96086 11.7524 4.58579C12.1275 4.21071 12.6362 4 13.1666 4C13.6971 4 14.2058 4.21071 14.5808 4.58579C14.9559 4.96086 15.1666 5.46957 15.1666 6V16" stroke="#4C4C4C" stroke-width="2" stroke-linecap="round" stroke-linejoin="round"/>
<path d="M15.1666 15.3334V12.6667C15.1666 12.1363 15.3773 11.6276 15.7524 11.2525C16.1275 10.8775 16.6362 10.6667 17.1666 10.6667C17.6971 10.6667 18.2058 10.8775 18.5808 11.2525C18.9559 11.6276 19.1666 12.1363 19.1666 12.6667V16.0001" stroke="#4C4C4C" stroke-width="2" stroke-linecap="round" stroke-linejoin="round"/>
<path d="M19.1666 14C19.1666 13.4696 19.3773 12.9609 19.7524 12.5858C20.1275 12.2107 20.6362 12 21.1666 12C21.6971 12 22.2058 12.2107 22.5808 12.5858C22.9559 12.9609 23.1666 13.4696 23.1666 14V16" stroke="#4C4C4C" stroke-width="2" stroke-linecap="round" stroke-linejoin="round"/>
<path d="M23.1667 15.3333C23.1667 14.8028 23.3774 14.2941 23.7525 13.919C24.1275 13.544 24.6362 13.3333 25.1667 13.3333C25.6971 13.3333 26.2058 13.544 26.5809 13.919C26.956 14.2941 27.1667 14.8028 27.1667 15.3333V21.3333C27.1667 23.455 26.3238 25.4898 24.8235 26.9901C23.3232 28.4904 21.2884 29.3333 19.1667 29.3333H16.5H16.7773C15.4524 29.3335 14.1482 29.0046 12.9818 28.3763C11.8154 27.748 10.8234 26.8397 10.0947 25.7333L9.83333 25.3333C9.41733 24.6946 7.95733 22.1493 5.452 17.6959C5.1966 17.242 5.12838 16.7063 5.26184 16.2028C5.39531 15.6993 5.71993 15.2678 6.16667 14.9999C6.6425 14.7144 7.2001 14.5961 7.75088 14.6637C8.30166 14.7314 8.81405 14.9811 9.20667 15.3733L11.1667 17.3333" stroke="#4C4C4C" stroke-width="2" stroke-linecap="round" stroke-linejoin="round"/>
<path d="M3.88794 7.45857C4.91116 6.71053 6.01061 6.07276 7.16794 5.55591" stroke="#4C4C4C" stroke-width="2" stroke-linecap="round" stroke-linejoin="round"/>
<path d="M19.1666 4.6106C20.9266 5.0826 22.5773 5.81326 24.08 6.75993" stroke="#4C4C4C" stroke-width="2" stroke-linecap="round" stroke-linejoin="round"/>
</g>
<defs>
<clipPath id="clip0_170_72452">
<rect width="32" height="32" fill="white" transform="translate(0.5)"/>
</clipPath>
</defs>
</svg>
