<svg width="32" height="32" viewBox="0 0 32 32" fill="none" xmlns="http://www.w3.org/2000/svg">
<g clip-path="url(#clip0_170_72371)">
<path d="M6.66667 5.33325H12L16 9.33325H25.3333C26.0406 9.33325 26.7189 9.6142 27.219 10.1143C27.719 10.6144 28 11.2927 28 11.9999V22.6666C28 23.3738 27.719 24.0521 27.219 24.5522C26.7189 25.0523 26.0406 25.3333 25.3333 25.3333H6.66667C5.95942 25.3333 5.28115 25.0523 4.78105 24.5522C4.28095 24.0521 4 23.3738 4 22.6666V7.99992C4 7.29267 4.28095 6.6144 4.78105 6.1143C5.28115 5.6142 5.95942 5.33325 6.66667 5.33325Z" stroke="#4C4C4C" stroke-width="2" stroke-linecap="round" stroke-linejoin="round"/>
<path d="M16 13.3333V21.3333" stroke="#4C4C4C" stroke-width="2" stroke-linecap="round" stroke-linejoin="round"/>
<path d="M12 17.3333H20" stroke="#4C4C4C" stroke-width="2" stroke-linecap="round" stroke-linejoin="round"/>
</g>
<defs>
<clipPath id="clip0_170_72371">
<rect width="32" height="32" fill="white"/>
</clipPath>
</defs>
</svg>
