<svg width="33" height="32" viewBox="0 0 33 32" fill="none" xmlns="http://www.w3.org/2000/svg">
<g clip-path="url(#clip0_170_72403)">
<path d="M21.5 1V6.33333C21.5 6.68696 21.6405 7.02609 21.8905 7.27614C22.1406 7.52619 22.4797 7.66667 22.8333 7.66667H28.1667" stroke="#4C4C4C" stroke-width="2" stroke-linecap="round" stroke-linejoin="round"/>
<path d="M25.5 19.6667H16.1667C15.4594 19.6667 14.7811 19.3857 14.281 18.8856C13.781 18.3855 13.5 17.7072 13.5 17V3.66667C13.5 2.95942 13.781 2.28115 14.281 1.78105C14.7811 1.28095 15.4594 1 16.1667 1H21.5L28.1667 7.66667V17C28.1667 17.7072 27.8857 18.3855 27.3856 18.8856C26.8855 19.3857 26.2072 19.6667 25.5 19.6667Z" stroke="#4C4C4C" stroke-width="2" stroke-linecap="round" stroke-linejoin="round"/>
<path d="M22.8334 19.6668V22.3335C22.8334 23.0407 22.5525 23.719 22.0524 24.2191C21.5523 24.7192 20.874 25.0002 20.1667 25.0002H10.8334C10.1262 25.0002 9.44789 24.7192 8.9478 24.2191C8.4477 23.719 8.16675 23.0407 8.16675 22.3335V9.00016C8.16675 8.29292 8.4477 7.61464 8.9478 7.11454C9.44789 6.61445 10.1262 6.3335 10.8334 6.3335H13.5001" stroke="#4C4C4C" stroke-width="2" stroke-linecap="round" stroke-linejoin="round"/>
<path d="M17.1667 25.3333V28C17.1667 28.7072 16.8857 29.3855 16.3856 29.8856C15.8855 30.3857 15.2072 30.6667 14.5 30.6667H5.16667C4.45942 30.6667 3.78115 30.3857 3.28105 29.8856C2.78095 29.3855 2.5 28.7072 2.5 28V14.6667C2.5 13.9594 2.78095 13.2811 3.28105 12.781C3.78115 12.281 4.45942 12 5.16667 12H7.83333" stroke="#4C4C4C" stroke-width="2" stroke-linecap="round" stroke-linejoin="round"/>
</g>
<defs>
<clipPath id="clip0_170_72403">
<rect width="32" height="32" fill="white" transform="translate(0.5)"/>
</clipPath>
</defs>
</svg>
