<svg width="32" height="32" viewBox="0 0 32 32" fill="none" xmlns="http://www.w3.org/2000/svg">
<g clip-path="url(#clip0_170_72412)">
<path d="M10.6666 17.3333V7.33325C10.6666 6.80282 10.8773 6.29411 11.2524 5.91904C11.6275 5.54397 12.1362 5.33325 12.6666 5.33325C13.1971 5.33325 13.7058 5.54397 14.0808 5.91904C14.4559 6.29411 14.6666 6.80282 14.6666 7.33325V15.9999" stroke="#4C4C4C" stroke-width="2" stroke-linecap="round" stroke-linejoin="round"/>
<path d="M14.6666 7.33341V4.66675C14.6666 4.4041 14.7184 4.14403 14.8189 3.90138C14.9194 3.65873 15.0667 3.43825 15.2524 3.25253C15.4381 3.06682 15.6586 2.9195 15.9013 2.81899C16.1439 2.71848 16.404 2.66675 16.6666 2.66675C16.9293 2.66675 17.1893 2.71848 17.432 2.81899C17.6746 2.9195 17.8951 3.06682 18.0808 3.25253C18.2666 3.43825 18.4139 3.65873 18.5144 3.90138C18.6149 4.14403 18.6666 4.4041 18.6666 4.66675V16.0001" stroke="#4C4C4C" stroke-width="2" stroke-linecap="round" stroke-linejoin="round"/>
<path d="M18.6666 7.33325C18.6666 6.80282 18.8773 6.29411 19.2524 5.91904C19.6275 5.54397 20.1362 5.33325 20.6666 5.33325C21.1971 5.33325 21.7058 5.54397 22.0808 5.91904C22.4559 6.29411 22.6666 6.80282 22.6666 7.33325V15.9999" stroke="#4C4C4C" stroke-width="2" stroke-linecap="round" stroke-linejoin="round"/>
<path d="M22.6667 10C22.6667 9.46957 22.8774 8.96086 23.2525 8.58579C23.6275 8.21071 24.1362 8 24.6667 8C25.1971 8 25.7058 8.21071 26.0809 8.58579C26.456 8.96086 26.6667 9.46957 26.6667 10V21.3333C26.6667 23.4551 25.8238 25.4899 24.3235 26.9902C22.8232 28.4905 20.7884 29.3333 18.6667 29.3333H16H16.2773C14.9524 29.3336 13.6482 29.0047 12.4818 28.3764C11.3154 27.748 10.3234 26.8398 9.59467 25.7333C9.50721 25.6002 9.4201 25.4669 9.33333 25.3333C8.91733 24.6947 7.45733 22.1493 4.952 17.696C4.6966 17.242 4.62838 16.7064 4.76184 16.2029C4.89531 15.6994 5.21993 15.2678 5.66667 15C6.1425 14.7145 6.7001 14.5962 7.25088 14.6638C7.80166 14.7314 8.31405 14.9812 8.70667 15.3733L10.6667 17.3333" stroke="#4C4C4C" stroke-width="2" stroke-linecap="round" stroke-linejoin="round"/>
</g>
<defs>
<clipPath id="clip0_170_72412">
<rect width="32" height="32" fill="white"/>
</clipPath>
</defs>
</svg>
